<svg width="939" height="122" viewBox="0 0 939 122" fill="none" xmlns="http://www.w3.org/2000/svg">
<path d="M47.586 121.506C32.8666 121.644 21.4311 117.965 13.2794 110.468C5.23438 102.97 0.903983 92.3431 0.28822 78.5884C0.1643 75.7094 0.0828458 71.0167 0.0438563 64.5101C0.00422758 57.8969 0.0287957 53.0965 0.117561 50.1089C0.569057 36.4508 4.82527 25.7971 12.8862 18.1479C21.0531 10.391 32.3896 6.44446 46.8957 6.30836C56.3886 6.21929 64.6648 7.79504 71.7243 11.0356C78.7832 14.1695 84.2494 18.545 88.1232 24.1623C91.9962 29.6728 94.0605 35.947 94.316 42.9849L94.3179 43.3049C94.323 44.1582 93.9542 44.9083 93.2114 45.5553C92.5746 46.0947 91.8296 46.3683 90.9763 46.3763L75.777 46.5189C74.497 46.5309 73.5355 46.2733 72.8923 45.746C72.2491 45.2187 71.7098 44.2103 71.2742 42.721C69.5273 36.0172 66.6726 31.3504 62.7102 28.7208C58.747 25.9846 53.459 24.6475 46.8459 24.7095C31.4866 24.8536 23.5384 33.5152 23.0013 50.6942C22.9119 53.5752 22.8851 58.0023 22.9209 63.9755C22.9567 69.9487 23.0372 74.4815 23.1624 77.5737C23.9053 94.7408 31.9564 103.252 47.3157 103.108C53.9288 103.046 59.2002 101.61 63.1301 98.7996C67.1666 95.9883 69.9651 91.2685 71.5254 84.6403C71.8364 83.144 72.3103 82.1262 72.9471 81.5868C73.6905 81.0465 74.7022 80.7703 75.9821 80.7583L91.1815 80.6157C92.1414 80.6067 92.9433 80.9192 93.5871 81.5532C94.3376 82.1862 94.6624 82.9832 94.5615 83.9441C94.3903 90.986 92.4018 97.3516 88.5958 103.041C84.7892 108.623 79.376 113.101 72.3561 116.474C65.3356 119.74 57.0789 121.417 47.586 121.506ZM152.636 120.521C143.143 120.61 134.975 119.246 128.132 116.43C121.288 113.615 116.092 109.876 112.544 105.216C108.996 100.556 107.099 95.507 106.853 90.069C106.848 89.1091 107.163 88.3061 107.799 87.6601C108.435 87.0141 109.233 86.6866 110.193 86.6776L124.432 86.544C125.712 86.532 126.674 86.7896 127.317 87.317C128.066 87.7366 128.764 88.4768 129.41 89.5374C130.499 93.154 132.97 96.1709 136.825 98.5882C140.679 101.005 145.913 102.183 152.526 102.121C160.099 102.05 165.798 100.77 169.623 98.2805C173.448 95.6845 175.347 92.1465 175.32 87.6666C175.302 84.68 174.274 82.2362 172.236 80.3353C170.304 78.4333 167.361 76.8075 163.406 75.4579C159.558 74.1073 153.788 72.4547 146.097 70.5001C133.493 67.6316 124.243 63.7716 118.347 58.92C112.557 53.9608 109.635 46.8946 109.58 37.7215C109.543 31.5349 111.163 26.0262 114.441 21.1952C117.825 16.3633 122.656 12.5312 128.932 9.69884C135.315 6.86551 142.72 5.40932 151.146 5.33026C159.892 5.2482 167.475 6.72379 173.893 9.75702C180.311 12.7903 185.188 16.638 188.522 21.3002C191.963 25.8548 193.804 30.4244 194.044 35.0089C194.05 35.9689 193.735 36.7719 193.099 37.4179C192.463 38.0639 191.665 38.3914 190.705 38.4004L175.825 38.54C173.585 38.561 172.033 37.5622 171.167 35.5436C170.507 32.1363 168.357 29.3297 164.717 27.1238C161.076 24.8112 156.589 23.6799 151.256 23.7299C145.283 23.786 140.597 24.95 137.197 27.222C133.797 29.4939 132.11 32.7632 132.136 37.0298C132.154 40.0164 133.022 42.4617 134.74 44.3657C136.458 46.2696 139.135 47.9512 142.77 49.4105C146.512 50.8688 151.855 52.4721 158.799 54.2203C168.198 56.2656 175.679 58.5955 181.241 61.21C186.91 63.8236 191.09 67.1445 193.781 71.1728C196.472 75.201 197.836 80.3618 197.874 86.655C197.915 93.4815 196.031 99.4728 192.222 104.629C188.518 109.677 183.208 113.567 176.291 116.299C169.481 119.029 161.596 120.437 152.636 120.521ZM255.288 119.558C245.795 119.647 237.627 118.283 230.783 115.467C223.94 112.651 218.744 108.913 215.196 104.253C211.648 99.5929 209.751 94.5439 209.505 89.1059C209.499 88.146 209.814 87.343 210.451 86.697C211.087 86.051 211.885 85.7235 212.845 85.7145L227.084 85.5809C228.364 85.5689 229.326 85.8265 229.969 86.3539C230.718 86.7735 231.416 87.5137 232.062 88.5743C233.15 92.1909 235.622 95.2078 239.476 97.6251C243.331 100.042 248.565 101.22 255.178 101.158C262.751 101.087 268.45 99.8067 272.275 97.3174C276.1 94.7214 277.998 91.1834 277.971 86.7035C277.954 83.7169 276.926 81.2731 274.888 79.3722C272.956 77.4702 270.013 75.8444 266.058 74.4948C262.21 73.1442 256.44 71.4916 248.748 69.537C236.144 66.6685 226.894 62.8085 220.999 57.9569C215.209 52.9977 212.286 45.9315 212.231 36.7584C212.194 30.5718 213.815 25.0631 217.092 20.2321C220.477 15.4002 225.307 11.5681 231.584 8.73574C237.967 5.90241 245.372 4.44622 253.798 4.36716C262.544 4.2851 270.126 5.76069 276.545 8.79392C282.963 11.8272 287.839 15.6749 291.174 20.3371C294.615 24.8917 296.455 29.4613 296.696 34.0458C296.702 35.0058 296.387 35.8088 295.751 36.4548C295.114 37.1008 294.316 37.4283 293.356 37.4373L278.477 37.5769C276.237 37.5979 274.685 36.5991 273.819 34.5805C273.159 31.1732 271.008 28.3666 267.369 26.1607C263.728 23.8481 259.241 22.7168 253.908 22.7668C247.935 22.8229 243.249 23.9869 239.849 26.2589C236.449 28.5308 234.762 31.8001 234.788 36.0667C234.805 39.0533 235.673 41.4986 237.392 43.4026C239.11 45.3065 241.786 46.9881 245.422 48.4474C249.164 49.9057 254.507 51.509 261.451 53.2572C270.85 55.3025 278.331 57.6324 283.893 60.2469C289.562 62.8605 293.742 66.1814 296.433 70.2097C299.124 74.2379 300.488 79.3987 300.526 85.6919C300.567 92.5184 298.682 98.5097 294.873 103.666C291.17 108.714 285.86 112.604 278.943 115.335C272.133 118.066 264.248 119.474 255.288 119.558ZM359.453 116.98C358.386 116.99 357.477 116.625 356.726 115.886C355.975 115.146 355.596 114.243 355.59 113.176L354.966 9.0182C354.959 7.84488 355.273 6.8819 355.908 6.12924C356.651 5.37558 357.608 4.99325 358.782 4.98224L428.218 4.33077C429.392 4.31976 430.354 4.68408 431.105 5.42373C431.856 6.16338 432.235 7.11986 432.242 8.29318L432.309 19.493C432.316 20.6663 431.949 21.6298 431.207 22.3834C430.464 23.0304 429.506 23.3594 428.333 23.3704L376.975 23.8523L377.157 54.2517L425.315 53.7999C426.488 53.7889 427.45 54.1532 428.201 54.8929C428.953 55.6325 429.332 56.589 429.339 57.7623L429.406 68.9621C429.413 70.1354 429.045 71.0989 428.303 71.8526C427.56 72.4996 426.602 72.8286 425.429 72.8396L377.271 73.2914L377.509 112.971C377.516 114.144 377.148 115.107 376.406 115.861C375.663 116.508 374.705 116.837 373.532 116.848L359.453 116.98ZM453.782 116.095C452.716 116.105 451.807 115.74 451.056 115.001C450.305 114.261 449.926 113.358 449.919 112.291L449.285 6.37321C449.278 5.1999 449.646 4.28975 450.388 3.64275C451.131 2.88909 452.035 2.50726 453.102 2.49725L466.381 2.37266C467.554 2.36165 468.463 2.72648 469.108 3.46713C469.858 4.10011 470.237 5.00325 470.244 6.17656L470.878 112.095C470.885 113.161 470.517 114.071 469.775 114.825C469.139 115.578 468.235 115.96 467.062 115.971L453.782 116.095ZM527.972 116.999C516.133 117.11 506.673 113.786 499.592 107.025C492.618 100.157 488.88 90.485 488.378 78.0092L488.194 74.0108L488.33 70.0093C488.791 57.8445 492.467 48.263 499.358 41.2648C506.356 34.2655 515.722 30.7108 527.455 30.6008C540.041 30.4827 549.77 34.2315 556.642 41.8474C563.621 49.4622 567.149 59.6695 567.226 72.4692L567.246 75.8292C567.252 76.8958 566.885 77.806 566.142 78.5596C565.4 79.3133 564.443 79.6956 563.269 79.7066L510.152 80.205L510.159 81.485C510.408 87.3495 512.037 92.2944 515.048 96.3197C518.165 100.237 522.39 102.171 527.723 102.121C534.016 102.062 539.068 99.5611 542.878 94.6185C543.831 93.4362 544.573 92.6825 545.105 92.3575C545.743 92.0315 546.649 91.863 547.822 91.852L561.581 91.7229C562.541 91.7139 563.343 92.0264 563.987 92.6604C564.737 93.1867 565.114 93.8765 565.119 94.7298C565.135 97.2898 563.606 100.344 560.534 103.893C557.568 107.335 553.266 110.362 547.628 112.975C541.991 115.588 535.439 116.929 527.972 116.999ZM545.43 66.4335L545.427 65.9535C545.389 59.6603 543.759 54.6087 540.536 50.7988C537.42 46.9879 533.088 45.1085 527.542 45.1605C521.995 45.2125 517.687 47.173 514.617 51.042C511.547 54.9109 510.03 59.992 510.068 66.2852L510.071 66.7652L545.43 66.4335ZM578.757 114.923C577.797 114.932 576.942 114.62 576.191 113.987C575.547 113.246 575.222 112.396 575.216 111.436C575.21 110.476 575.578 109.566 576.319 108.705L603.3 71.9708L577.816 37.9686C577.171 37.1212 576.845 36.2176 576.839 35.2576C576.834 34.2976 577.149 33.4946 577.785 32.8487C578.527 32.095 579.378 31.7137 580.338 31.7047L594.257 31.5741C595.324 31.5641 596.126 31.8232 596.662 32.3515C597.305 32.7722 597.949 33.4062 598.594 34.2535L616.817 58.0834L634.752 33.9142C634.858 33.8066 635.282 33.3226 636.023 32.4623C636.658 31.6029 637.669 31.1668 639.056 31.1538L652.335 31.0292C653.295 31.0202 654.097 31.386 654.742 32.1266C655.492 32.7596 655.87 33.5028 655.875 34.3561C655.881 35.4227 655.567 36.3857 654.932 37.245L629.54 72.0446L657.116 107.947C657.868 108.794 658.246 109.697 658.252 110.657C658.258 111.617 657.89 112.474 657.148 113.227C656.511 113.873 655.713 114.201 654.753 114.21L640.194 114.346C638.487 114.362 637.042 113.522 635.859 111.827L616.507 86.5674L597.141 112.19C595.978 113.908 594.543 114.775 592.836 114.791L578.757 114.923ZM718.673 115.21C707.686 115.313 699.131 111.607 693.006 104.09L693.041 110.01C693.048 111.077 692.68 111.987 691.938 112.741C691.302 113.493 690.398 113.875 689.224 113.886L676.585 114.005C675.518 114.015 674.609 113.65 673.858 112.91C673.107 112.171 672.728 111.268 672.722 110.201L672.087 4.28283C672.08 3.10952 672.448 2.19937 673.191 1.55237C673.933 0.798713 674.838 0.416879 675.904 0.406872L689.504 0.27928C690.677 0.268272 691.586 0.633094 692.23 1.37375C692.981 2.00673 693.359 2.90987 693.366 4.08318L693.579 39.6025C699.617 32.5056 707.809 28.9086 718.155 28.8116C728.928 28.7105 737.215 32.1529 743.017 39.1387C748.819 46.1245 751.967 55.2154 752.461 66.4112C752.575 67.6901 752.639 69.3963 752.651 71.5296C752.665 73.7695 752.622 75.53 752.523 76.811C752.165 88.3348 749.127 97.5903 743.409 104.578C737.691 111.565 729.446 115.109 718.673 115.21ZM712.65 98.1459C724.17 98.0378 730.26 90.887 730.922 76.6936C731.022 75.626 731.066 74.0255 731.053 71.8922C731.04 69.7589 730.978 68.1594 730.864 67.0938C730.033 52.9144 723.857 45.8787 712.338 45.9868C706.365 46.0428 701.79 48.0058 698.613 51.8758C695.542 55.6381 693.916 60.1868 693.735 65.5221L693.611 71.6035L693.808 77.8419C694.163 83.5988 695.845 88.4365 698.855 92.3551C701.866 96.2736 706.464 98.2039 712.65 98.1459ZM807.514 114.376C795.034 114.494 785.362 111.384 778.497 105.048C771.632 98.6059 767.899 89.7872 767.299 78.5924L767.097 71.554L767.214 64.5127C767.681 53.4145 771.362 44.5797 778.256 38.0081C785.15 31.4365 794.73 28.0931 806.996 27.978C819.262 27.863 828.881 31.0262 835.853 37.4677C842.825 43.9092 846.611 52.674 847.211 63.7621C847.325 65.0411 847.393 67.3872 847.413 70.8005C847.434 74.2138 847.394 76.5609 847.295 77.8419C846.829 89.0467 843.202 97.9344 836.415 104.505C829.627 110.969 819.993 114.259 807.514 114.376ZM807.419 98.5368C813.072 98.4837 817.435 96.6827 820.507 93.1338C823.578 89.4782 825.253 84.1822 825.531 77.246C825.632 76.1784 825.673 74.0979 825.654 71.0046C825.636 67.9114 825.57 65.8319 825.457 64.7663C825.095 57.836 823.357 52.6255 820.243 49.1346C817.128 45.537 812.744 43.7647 807.091 43.8178C801.438 43.8708 797.076 45.7251 794.004 49.3808C790.932 52.9297 789.257 58.1723 788.978 65.1085L788.856 71.3499L789.053 77.5883C789.415 84.5185 791.153 89.7824 794.268 93.38C797.382 96.8709 801.766 98.5898 807.419 98.5368ZM859.369 112.29C858.409 112.299 857.554 111.987 856.804 111.354C856.159 110.613 855.834 109.763 855.828 108.803C855.823 107.843 856.191 106.933 856.932 106.073L883.912 69.338L858.428 35.3358C857.783 34.4885 857.458 33.5848 857.452 32.6249C857.446 31.6649 857.761 30.8619 858.398 30.2159C859.14 29.4622 859.991 29.0809 860.951 29.0719L874.87 28.9413C875.937 28.9313 876.738 29.1904 877.275 29.7188C877.917 30.1394 878.561 30.7734 879.206 31.6207L897.429 55.4507L915.365 31.2815C915.471 31.1738 915.894 30.6898 916.636 29.8295C917.271 28.9702 918.282 28.534 919.668 28.521L932.948 28.3964C933.908 28.3874 934.71 28.7532 935.354 29.4939C936.105 30.1269 936.482 30.87 936.488 31.7233C936.494 32.79 936.18 33.753 935.545 34.6123L910.153 69.4118L937.729 105.314C938.48 106.161 938.859 107.064 938.865 108.024C938.871 108.984 938.502 109.841 937.76 110.594C937.124 111.24 936.326 111.568 935.366 111.577L920.807 111.713C919.1 111.73 917.655 110.89 916.472 109.194L897.12 83.9347L877.753 109.557C876.59 111.275 875.155 112.142 873.449 112.158L859.369 112.29Z" fill="#FF5A5A"/>
</svg>
